#!OML:ASF H:\Dans Jumps\Project 1\Capture day 1\Session 1\subject.ASF
:FULLY-SPECIFIED
:DEGREES
125
root 0.0731204 17.5975 -14.3623 8.78439 0.578445 -1.50552
lowerback -0.34157 -0.234227 0.841423
upperback 4.94667 -0.42773 1.94182
thorax 5.31285 -0.223996 1.51871
lowerneck -11.2905 0.191063 -2.51964
upperneck 35.111 0.473947 1.33869
head 13.7702 0.0541645 1.05351
rclavicle 4.17448e-015 4.77083e-015
rhumerus -21.5275 -20.052 -80.453
rradius 23.4812
rwrist 32.2335
rhand -20.0485 -26.8142
rfingers 7.12502
rthumb 6.29296 -56.7007
lclavicle 4.17448e-015 4.77083e-015
lhumerus -17.9727 3.0505 88.0681
lradius 15.3888
lwrist 0.860284
lhand -25.7197 -3.30987
lfingers 7.12502
lthumb 0.816506 26.6683
rfemur -16.9238 -1.01757 19.062
rtibia 20.909
rfoot -12.1928 -2.42985
rtoes 8.4085
lfemur -15.8074 5.74343 -16.8781
ltibia 19.057
lfoot -10.4998 5.2366
ltoes -9.03284
126
root 0.0727517 17.6058 -14.3478 8.81629 0.520585 -1.44383
lowerback -0.5586 -0.222473 0.777446
upperback 4.855 -0.410646 1.90186
thorax 5.3401 -0.217171 1.51319
lowerneck -11.2988 0.200462 -2.50432
upperneck 35.1187 0.482136 1.34416
head 13.7752 0.0602594 1.0543
rclavicle -3.18055e-015 7.95139e-016
rhumerus -21.6748 -20.3367 -80.3889
rradius 23.2915
rwrist 32.5727
rhand -20.0072 -26.7616
rfingers 7.12502
rthumb 6.33288 -56.647
lclavicle -3.18055e-015 7.95139e-016
lhumerus -18.1419 3.25522 87.9745
lradius 15.2897
lwrist 0.6355
lhand -25.7661 -3.38376
lfingers 7.12502
lthumb 0.771675 26.5946
rfemur -16.7635 -0.969416 18.9859
rtibia 20.6332
rfoot -12.1235 -2.41186
rtoes 8.57049
lfemur -15.5585 5.77769 -16.9425
ltibia 18.6427
lfoot -10.4452 5.31075
ltoes -9.55863
127
root 0.0722454 17.6138 -14.3332 8.85767 0.469981 -1.38594
lowerback -0.780774 -0.21406 0.720487
upperback 4.7582 -0.397986 1.86221
thorax 5.365 -0.212214 1.50387
lowerneck -11.318 0.211309 -2.48232
upperneck 35.1251 0.4939 1.34134
head 13.7821 0.0676918 1.05116
rclavicle -4.17448e-015 -9.93923e-015
rhumerus -21.8264 -20.6044 -80.3275
rradius 23.121
rwrist 32.8764
rhand -19.9565 -26.7163
rfingers 7.12502
rthumb 6.38181 -56.6001
lclavicle -4.17448e-015 -9.93923e-015
lhumerus -18.3153 3.44461 87.8799
lradius 15.1987
lwrist 0.445238
lhand -25.8231 -3.51089
lfingers 7.12502
lthumb 0.716614 26.4676
rfemur -16.6124 -0.924217 18.9143
rtibia 20.3592
rfoot -12.0586 -2.39568
rtoes 8.75335
lfemur -15.329 5.80393 -17.0031
ltibia 18.2405
lfoot -10.3758 5.39468
ltoes -10.1144
128
root 0.0717443 17.6215 -14.3186 8.90515 0.427364 -1.33711
lowerback -1.00288 -0.207525 0.678617
upperback 4.65784 -0.388121 1.82381
thorax 5.38614 -0.207992 1.4873
lowerneck -11.3418 0.221666 -2.46049
upperneck 35.1198 0.505399 1.33776
head 13.7848 0.0750002 1.04758
rclavicle 2.08724e-015 0
rhumerus -21.9796 -20.8592 -80.2678
rradius 22.9687
rwrist 33.1411
rhand -19.8859 -26.6913
rfingers 7.12502
rthumb 6.44993 -56.5731
lclavicle 2.08724e-015 0
lhumerus -18.4936 3.61117 87.7887
lradius 15.1191
lwrist 0.293366
lhand -25.8933 -3.67151
lfingers 7.12502
lthumb 0.648833 26.3072
rfemur -16.4673 -0.887963 18.8536
rtibia 20.0856
rfoot -11.9972 -2.37596
rtoes 8.93906
lfemur -15.1206 5.81796 -17.0541
ltibia 17.8604
lfoot -10.2985 5.48811
ltoes -10.663
129
root 0.0713037 17.6289 -14.3042 8.95925 0.390164 -1.30102
lowerback -1.22138 -0.203404 0.651912
upperback 4.55295 -0.38196 1.79018
thorax 5.40055 -0.205042 1.46699
lowerneck -11.3642 0.232913 -2.4426
upperneck 35.0973 0.519415 1.33345
head 13.7794 0.0829319 1.04457
rclavicle 1.2921e-015 2.50469e-014
rhumerus -22.138 -21.0817 -80.2103
rradius 22.8423
rwrist 33.354
rhand -19.7894 -26.6897
rfingers 7.12502
rthumb 6.54311 -56.5686
lclavicle 1.2921e-015 2.50469e-014
lhumerus -18.6811 3.77219 87.7019
lradius 15.0563
lwrist 0.169861
lhand -25.9602 -3.85391
lfingers 7.12502
lthumb 0.584216 26.125
rfemur -16.3308 -0.86338 18.8075
rtibia 19.8119
rfoot -11.9371 -2.34811
rtoes 9.11415
lfemur -14.9392 5.82307 -17.093
ltibia 17.5113
lfoot -10.2172 5.5887
ltoes -11.1837
130
root 0.0710021 17.6357 -14.2902 9.01851 0.360112 -1.28257
lowerback -1.43364 -0.202701 0.645299
upperback 4.44479 -0.381185 1.76239
thorax 5.40805 -0.204026 1.44118
lowerneck -11.3835 0.246041 -2.42006
upperneck 35.0552 0.537522 1.32133
head 13.7644 0.0923735 1.03793
rclavicle -3.77691e-015 -1.55052e-014
rhumerus -22.3013 -21.2611 -80.1583
rradius 22.7429
rwrist 33.5143
rhand -19.6826 -26.6996
rfingers 7.12502
rthumb 6.64624 -56.5753
lclavicle -3.77691e-015 -1.55052e-014
lhumerus -18.8769 3.93866 87.6173
lradius 15.0124
lwrist 0.06781
lhand -26.0248 -4.03608
lfingers 7.12502
lthumb 0.521781 25.943
rfemur -16.2025 -0.852275 18.7814
rtibia 19.5396
rfoot -11.879 -2.30937
rtoes 9.29418
lfemur -14.7867 5.81801 -17.1142
ltibia 17.1997
lfoot -10.1368 5.69142
ltoes -11.639
131
root 0.0708679 17.6419 -14.277 9.08106 0.336301 -1.2804
lowerback -1.63813 -0.204885 0.656042
upperback 4.33664 -0.38515 1.74094
thorax 5.4112 -0.204778 1.41194
lowerneck -11.3947 0.260211 -2.3989
upperneck 34.9845 0.557405 1.30855
head 13.7348 0.102555 1.03113
rclavicle 1.2921e-015 -2.18663e-014
rhumerus -22.4634 -21.3964 -80.112
rradius 22.6669
rwrist 33.6313
rhand -19.5765 -26.713
rfingers 7.12502
rthumb 6.74864 -56.5854
lclavicle 1.2921e-015 -2.18663e-014
lhumerus -19.0726 4.11366 87.5367
lradius 14.9856
lwrist -0.0184908
lhand -26.0734 -4.19064
lfingers 7.12502
lthumb 0.474872 25.7886
rfemur -16.0836 -0.857273 18.7741
rtibia 19.272
rfoot -11.8215 -2.25827
rtoes 9.46475
lfemur -14.6633 5.80142 -17.119
ltibia 16.929
lfoot -10.0585 5.796
ltoes -12.0272
